<?xml version="1.0" encoding="UTF-8" standalone="no"?>
        <svg 
    viewBox="3.5888671875 -85.83984375 447.7294921875 56.982421875"
    width="444.140625"
    height="142.822265625"
   xmlns="http://www.w3.org/2000/svg"
   xmlns:svg="http://www.w3.org/2000/svg">
   <path d="M49.66-53.98L29.74-53.98L29.74-21.17L49.66-21.17L49.66-53.98ZM10.99-0.15L10.99-58.23L10.99-65.84L30.03-58.81L30.03-89.43L4.83-89.43L3.59-93.60L30.03-93.60L30.03-126.27L55.08-124.22Q54.86-122.61 53.69-121.51Q52.51-120.41 49.51-119.82L49.51-119.82L49.51-93.60L51.64-93.60L61.38-107.67Q61.38-107.67 63.17-106.13Q64.97-104.59 67.71-102.14Q70.46-99.68 73.43-96.94Q76.39-94.19 78.74-91.77L78.74-91.77Q78.08-89.43 74.56-89.43L74.56-89.43L49.51-89.43L49.51-59.69L57.13-67.82L75.15-53.98Q74.49-53.10 72.99-52.19Q71.48-51.27 69.14-50.83L69.14-50.83L69.14-15.31Q69.14-14.50 66.65-12.78Q64.16-11.06 60.42-9.67Q56.69-8.28 53.10-8.28L53.10-8.28L49.66-8.28L49.66-16.92L29.74-16.92L29.74-5.57Q29.74-4.54 25.60-2.34Q21.46-0.15 14.43-0.15L14.43-0.15L10.99-0.15ZM119.09-82.76L119.09-111.47L99.02-111.47L99.02-82.76L119.09-82.76ZM79.47-62.70L79.47-115.65L79.47-123.49L102.03-115.65L117.63-115.65L126.78-125.98L145.53-111.47Q143.77-109.20 139.53-108.18L139.53-108.18L139.53-10.62Q139.53-3.59 137.81 1.46Q136.08 6.52 130.63 9.56Q125.17 12.60 113.82 13.62L113.82 13.62Q113.38 8.35 112.54 4.39Q111.69 0.44 109.79-1.98L109.79-1.98Q107.89-4.54 104.92-6.30Q101.95-8.06 95.87-9.16L95.87-9.16L95.87-11.28Q95.87-11.28 98.44-11.10Q101.00-10.91 104.59-10.73Q108.18-10.55 111.40-10.36Q114.62-10.18 115.94-10.18L115.94-10.18Q119.09-10.18 119.09-13.33L119.09-13.33L119.09-44.53L98.22-44.53Q97.12-33.25 93.05-22.63Q88.99-12.01 79.91-2.82Q70.83 6.37 54.57 13.48L54.57 13.48L53.25 12.30Q64.97 2.27 70.53-9.52Q76.10-21.31 77.78-34.64Q79.47-47.97 79.47-62.70L79.47-62.70ZM119.09-48.78L119.09-78.59L99.02-78.59L99.02-62.84Q99.02-55.74 98.58-48.78L98.58-48.78L119.09-48.78ZM266.38-48.93L229.47-48.93L229.47-4.32L266.38-4.32L266.38-48.93ZM229.47-93.16L229.47-53.10L266.38-53.10L266.38-93.16L229.47-93.16ZM237.01-128.10L237.01-128.10L268.07-120.63Q267.04-116.97 261.47-116.67L261.47-116.67Q257.37-112.79 251.66-107.23Q245.95-101.66 241.33-97.34L241.33-97.34L264.92-97.34L274.80-108.33L294.14-93.02Q293.33-91.99 291.91-91.11Q290.48-90.23 288.13-89.72L288.13-89.72L288.13 4.47Q288.06 5.20 285.13 6.63Q282.20 8.06 278.03 9.27Q273.85 10.47 269.97 10.47L269.97 10.47L266.38 10.47L266.38-0.15L229.47-0.15L229.47 4.32Q229.47 5.64 226.90 7.43Q224.34 9.23 220.20 10.62Q216.06 12.01 211.38 12.01L211.38 12.01L207.93 12.01L207.93-106.35L230.42-97.34L233.86-97.34Q234.38-101.51 234.96-106.97Q235.55-112.43 236.10-117.99Q236.65-123.56 237.01-128.10ZM180.03-128.39L180.03-128.39L209.25-119.68Q208.30-116.53 203.10-116.53L203.10-116.53Q200.17-109.13 197.02-102.28Q193.87-95.43 190.36-89.14L190.36-89.14L196.66-86.87Q196.29-85.69 195.26-85.00Q194.24-84.30 191.97-83.86L191.97-83.86L191.97 8.13Q191.82 8.86 189.22 10.33Q186.62 11.79 182.59 13.04Q178.56 14.28 174.32 14.28L174.32 14.28L170.21 14.28L170.21-59.99Q166.33-55.37 162.05-51.31Q157.76-47.24 153.30-43.65L153.30-43.65L151.68-44.68Q157.10-55.00 162.56-68.77Q168.02-82.54 172.60-97.92Q177.17-113.31 180.03-128.39ZM416.97-33.18L418.36-33.91Q429.79-30.83 436.27-26.26Q442.75-21.68 445.24-16.74Q447.73-11.79 447.11-7.47Q446.48-3.15 443.70-0.44Q440.92 2.27 436.78 2.31Q432.64 2.34 428.25-1.32L428.25-1.32Q427.59-9.67 424.26-18.16Q420.92-26.66 416.97-33.18L416.97-33.18ZM310.47-35.82L310.47-35.82Q312.30-35.82 313.11-36.22Q313.92-36.62 315.31-38.82L315.31-38.82Q316.33-40.50 317.21-42.08Q318.09-43.65 319.63-46.80Q321.17-49.95 324.02-56.07Q326.88-62.18 331.75-72.84Q336.62-83.50 344.24-100.20L344.24-100.20L346.51-99.76Q344.68-93.46 342.33-85.18Q339.99-76.90 337.72-68.59Q335.45-60.28 333.73-53.69Q332.01-47.09 331.35-44.09L331.35-44.09Q330.54-40.50 329.92-36.62Q329.30-32.74 329.37-29.88L329.37-29.88Q329.52-25.49 331.27-21.86Q333.03-18.24 334.64-13.73Q336.25-9.23 336.04-2.27L336.04-2.27Q335.74 3.81 331.86 7.47Q327.98 11.13 322.05 11.13L322.05 11.13Q319.26 11.13 316.52 9.38Q313.77 7.62 312.74 3.15L312.74 3.15Q314.28-4.98 314.58-12.23Q314.87-19.48 314.10-24.43Q313.33-29.37 311.57-30.62L311.57-30.62Q308.64-32.67 303.74-33.18L303.74-33.18L303.74-35.82Q303.74-35.82 305.09-35.82Q306.45-35.82 308.06-35.82Q309.67-35.82 310.47-35.82ZM312.60-126.27L313.77-127.08Q324.68-125.54 330.87-122.20Q337.06-118.87 339.40-114.81Q341.75-110.74 341.13-107.01Q340.50-103.27 337.79-100.82Q335.08-98.36 331.09-98.18Q327.10-98.00 322.78-101.22L322.78-101.22Q321.90-107.89 318.82-114.62Q315.75-121.36 312.60-126.27L312.60-126.27ZM302.86-92.29L304.03-93.02Q314.50-91.48 320.29-88.26Q326.07-85.03 328.20-81.12Q330.32-77.20 329.59-73.61Q328.86-70.02 326.11-67.71Q323.36-65.41 319.52-65.33Q315.67-65.26 311.57-68.55L311.57-68.55Q311.21-74.85 308.64-81.30Q306.08-87.74 302.86-92.29L302.86-92.29ZM373.68-38.38L373.68-92.58L373.68-100.20L393.16-92.58L393.75-92.58Q394.12-96.61 394.30-101.48Q394.48-106.35 394.48-110.23L394.48-110.23L367.02-110.23L367.02-77.86Q367.02-67.38 366.25-55.30Q365.48-43.21 362.44-30.80Q359.40-18.38 352.81-6.85Q346.22 4.69 334.64 13.92L334.64 13.92L333.33 13.04Q339.84-0.59 342.74-16.08Q345.63-31.57 346.36-47.39Q347.09-63.21 347.09-77.86L347.09-77.86L347.09-124.07L370.02-114.48L418.65-114.48L428.98-128.25Q428.98-128.25 430.88-126.75Q432.79-125.24 435.72-122.83Q438.65-120.41 441.87-117.70Q445.09-114.99 447.73-112.65L447.73-112.65Q447.07-110.23 443.41-110.23L443.41-110.23L400.93-110.23L418.80-106.05Q418.36-104.74 417.04-103.82Q415.72-102.91 413.23-103.05L413.23-103.05Q410.52-100.71 407.41-97.92Q404.30-95.14 400.93-92.58L400.93-92.58L417.77-92.58L426.42-102.03L444.43-88.48Q443.92-87.74 442.68-86.94Q441.43-86.13 439.53-85.62L439.53-85.62L439.53-44.82Q439.45-44.24 436.60-43.14Q433.74-42.04 429.82-41.13Q425.90-40.21 422.68-40.21L422.68-40.21L419.09-40.21L419.09-46.51L416.24-46.51L416.24-10.18Q416.24-3.37 414.55 1.87Q412.87 7.10 407.67 10.33Q402.47 13.55 391.77 14.43L391.77 14.43Q391.70 9.30 391.22 5.60Q390.75 1.90 389.28-0.44L389.28-0.44Q388.04-2.71 385.69-4.43Q383.35-6.15 378.30-7.03L378.30-7.03L378.30-9.01Q378.30-9.01 380.09-8.90Q381.88-8.79 384.41-8.64Q386.94-8.50 389.28-8.39Q391.63-8.28 392.72-8.28L392.72-8.28Q395.21-8.28 395.21-10.62L395.21-10.62L395.21-22.92Q394.26-22.56 391.77-22.78L391.77-22.78Q385.25-15.01 375.26-7.47Q365.26 0.07 353.10 4.61L353.10 4.61L351.93 3.15Q357.20-2.20 361.82-9.16Q366.43-16.11 369.84-23.29Q373.24-30.47 375.15-36.47L375.15-36.47L395.21-26.07L395.21-46.51L392.43-46.51L392.43-44.24Q392.43-43.43 390.05-42.04Q387.67-40.65 384.01-39.51Q380.35-38.38 376.32-38.38L376.32-38.38L373.68-38.38ZM419.09-50.68L419.09-67.53L392.43-67.53L392.43-50.68L419.09-50.68ZM392.43-71.70L419.09-71.70L419.09-88.33L392.43-88.33L392.43-71.70Z"/>
    </svg>
        